PathFileType  4	(X/Y/Z) C:\Users\antoi\Documents\MyRepositories\mobilecap\ResultsAnalysis
DataRate	CameraRate	NumFrames	NumMarkers	Units	OrigDataRate	OrigDataStartFrame	OrigNumFrames
100.0	100.0	6	51	mm	100.0	112	223
Frame#	Time	r_knee			r_shank_antsup			r_ankle			r_calc			r_5meta			r_toe			L_knee			L_shank_antsup			L_ankle			L_calc			L_5meta			L_toe			r_sh2			r_sh3			r_sh4			L_sh2			L_sh3			r_thigh1			r_thigh2			r_thigh3			r_thigh4			r_thigh5			L_thigh1			L_thigh2			L_thigh3			L_thigh4			r.ASIS			r.PSIS			L.ASIS			L.PSIS			C7			R_Shoulder			L_Shoulder			R_Sternum			L_Sternum			R_humerus			R_elbow_med			R_elbow_lat			R_forearm			R_wrist_radius			R_wrist_ulna			L_humerus			L_elbow_med			L_elbow_lat			L_forearm			L_wrist_radius			L_wrist_ulna			R_HJC			L_HJC			R_HJC_reg			L_HJC_reg			
		X1	Y1	Z1	X2	Y2	Z2	X3	Y3	Z3	X4	Y4	Z4	X5	Y5	Z5	X6	Y6	Z6	X7	Y7	Z7	X8	Y8	Z8	X9	Y9	Z9	X10	Y10	Z10	X11	Y11	Z11	X12	Y12	Z12	X13	Y13	Z13	X14	Y14	Z14	X15	Y15	Z15	X16	Y16	Z16	X17	Y17	Z17	X18	Y18	Z18	X19	Y19	Z19	X20	Y20	Z20	X21	Y21	Z21	X22	Y22	Z22	X23	Y23	Z23	X24	Y24	Z24	X25	Y25	Z25	X26	Y26	Z26	X27	Y27	Z27	X28	Y28	Z28	X29	Y29	Z29	X30	Y30	Z30	X31	Y31	Z31	X32	Y32	Z32	X33	Y33	Z33	X34	Y34	Z34	X35	Y35	Z35	X36	Y36	Z36	X37	Y37	Z37	X38	Y38	Z38	X39	Y39	Z39	X40	Y40	Z40	X41	Y41	Z41	X42	Y42	Z42	X43	Y43	Z43	X44	Y44	Z44	X45	Y45	Z45	X46	Y46	Z46	X47	Y47	Z47	X48	Y48	Z48	X49	Y49	Z49	X50	Y50	Z50	X51	Y51	Z51	

112	1.11000000	-126.67120	449.31441	-440.32773	-90.55101	371.81068	-458.42306	-296.29478	105.35424	-437.43984	-381.58162	75.13433	-468.01925	-209.45276	46.86032	-401.38140	-158.53002	64.58328	-459.85818	-146.36089	433.11028	-762.08033	-132.27220	336.56190	-773.01867	-359.07355	124.16505	-776.66343	-444.08884	97.26216	-734.20309	-284.78091	45.15974	-823.90854	-236.32157	56.91370	-770.19645	-155.01814	279.19614	-430.74523	-150.15567	418.33004	-420.76606	-213.94899	321.70910	-411.77005	-201.13980	392.43486	-780.04325	-269.55974	290.36680	-792.53146	-343.90841	680.19531	-408.00143	-254.74849	614.81655	-417.30075	-268.70779	551.90946	-393.84330	-410.76070	589.66152	-394.67180	-314.46724	521.80413	-403.74216	-341.87029	615.11780	-797.32024	-224.86299	543.55074	-780.12951	-402.55489	525.80275	-749.48476	-279.51655	454.59644	-750.31010	-357.90732	722.57796	-466.92500	-528.48035	816.27435	-539.15857	-368.63690	704.51705	-714.13278	-534.42701	817.46045	-639.94535	-254.33144	1136.28744	-646.47421	-169.93336	1089.71954	-479.87649	-168.69420	1057.13955	-794.16405	-137.37621	1035.68710	-606.68842	-135.74591	1028.98657	-654.69752	-206.20035	1008.59477	-373.83246	-325.03694	827.07003	-321.05492	-293.73411	867.06130	-257.38023	-162.34043	843.18719	-314.46039	-57.65829	816.10268	-377.54881	-48.35835	788.15137	-357.24428	-168.73990	962.07047	-861.50297	-218.33881	727.51809	-853.48593	-183.75482	763.59428	-922.14099	-94.27123	774.84369	-851.67252	21.16905	762.86162	-760.99030	35.33944	742.98281	-785.57835	-456.51476	670.40337	-482.46114	-465.70138	661.62928	-688.53486	-449.49764	665.92722	-496.66138	-459.14353	667.85141	-660.11642	
113	1.12000000	-124.47670	449.17360	-440.49477	-88.43444	370.39321	-459.52455	-295.96695	105.66991	-437.47182	-381.34263	75.68355	-468.04303	-209.27226	46.99871	-401.40388	-158.26205	64.54624	-459.97055	-143.34688	431.48743	-761.21103	-129.13459	334.82890	-771.53530	-358.23875	124.99303	-775.90420	-443.31590	98.67140	-733.31963	-284.62286	45.59859	-823.67216	-235.94338	57.01584	-770.02676	-153.27648	278.66073	-431.19027	-147.61874	417.22943	-421.17739	-211.69763	321.26210	-411.82583	-197.57650	391.16396	-779.53812	-266.69792	289.66197	-791.86719	-342.25501	679.89369	-409.35343	-252.93590	614.64242	-418.53502	-266.50699	552.73610	-392.90701	-408.56296	589.07413	-394.37280	-311.91160	521.57014	-403.40675	-339.92940	612.77714	-796.50495	-222.30493	542.00511	-779.32585	-399.96096	522.45100	-749.38085	-276.17722	452.17500	-750.29547	-357.99494	721.59510	-466.35356	-527.44342	812.72446	-540.71006	-366.95025	700.07620	-713.52208	-532.14482	813.52581	-641.23214	-246.75597	1124.84158	-645.69672	-161.50599	1078.36588	-478.51470	-160.64700	1046.75005	-794.28550	-129.94292	1025.13212	-606.20348	-128.33718	1018.15707	-654.21252	-192.78636	993.44106	-375.59109	-308.75027	808.61638	-320.45171	-273.83470	847.56029	-259.39856	-145.55867	829.87956	-320.89757	-42.20635	805.57431	-386.90943	-31.37317	777.97958	-366.83170	-158.01629	950.77995	-859.37382	-205.13152	714.96482	-848.93326	-167.58279	750.51049	-915.67966	-81.01292	763.99623	-843.51356	31.57014	754.30136	-749.02795	46.76583	735.06133	-773.66702	-455.77160	668.41641	-481.83040	-463.61384	657.21388	-687.84608	-449.12801	662.46897	-496.93725	-456.77896	663.77260	-660.61013	
114	1.13000000	-121.65797	448.65621	-440.48388	-86.82017	369.20870	-460.03706	-295.81624	105.75471	-437.36796	-381.29006	75.82718	-467.87667	-209.18387	47.01752	-401.37452	-158.15063	64.54769	-460.02709	-141.32109	429.26173	-760.22066	-126.86403	333.78879	-770.65481	-357.59249	125.71713	-775.47375	-442.69624	99.87789	-732.68719	-284.46341	46.01789	-823.52754	-235.62462	57.16289	-769.98856	-152.08216	277.84638	-431.21936	-146.21124	416.13426	-421.34222	-210.39897	320.65237	-411.83378	-194.90097	390.63783	-779.07417	-264.73837	289.51041	-791.29090	-340.04453	679.34328	-410.43755	-250.96172	613.87301	-419.38168	-264.93454	553.53371	-390.83535	-406.71017	588.96926	-394.43303	-310.09963	521.16341	-403.07405	-338.14264	610.35373	-796.12776	-220.07764	540.12855	-778.96300	-398.00317	519.51304	-749.67637	-273.73248	449.81007	-750.28302	-357.58178	719.83527	-466.13650	-526.09310	810.15353	-542.69548	-365.13831	697.28373	-713.55294	-529.66757	810.54453	-642.75271	-239.99642	1114.34408	-644.51245	-153.51601	1068.66975	-476.59357	-153.31046	1037.47793	-794.40425	-122.94472	1015.48636	-605.86631	-121.23933	1008.65803	-653.52632	-181.26816	980.21181	-377.08769	-294.18313	791.48190	-321.04362	-256.25254	829.92263	-262.66429	-130.50803	817.54671	-327.39732	-28.10872	795.89384	-394.87858	-16.22043	768.21094	-375.57850	-148.36154	940.43867	-857.70760	-192.58809	703.13927	-844.33331	-153.02951	738.90371	-909.55010	-68.80229	754.00536	-835.22288	41.43233	745.92072	-738.37741	57.35102	727.04282	-762.89099	-455.04899	666.38946	-482.30175	-461.40633	654.23794	-688.31980	-448.78579	660.20130	-497.53183	-454.64200	660.84140	-661.46983	
115	1.14000000	-118.95643	447.73602	-440.21946	-85.55590	368.55356	-459.38859	-295.84293	105.64823	-437.23306	-381.35331	75.69777	-467.67000	-209.16679	46.97208	-401.37329	-158.20979	64.55644	-460.07221	-139.66183	427.54991	-759.62196	-125.20654	333.32524	-770.58227	-356.98440	126.46882	-775.63839	-442.18175	100.98697	-732.70798	-284.24810	46.29854	-823.53888	-235.32338	57.25965	-770.04593	-151.33711	276.79445	-431.01856	-145.16289	415.24194	-421.05513	-209.88515	320.05937	-411.71110	-192.87068	390.87497	-778.68990	-263.44390	290.04412	-790.93664	-337.59895	678.25530	-411.17029	-249.13628	612.77351	-419.64885	-263.71261	553.34122	-389.65201	-405.13656	588.91106	-394.50455	-308.84138	520.41689	-402.96264	-336.46116	608.34163	-796.17564	-218.22758	538.30749	-778.97214	-396.49556	517.18275	-750.19852	-272.07516	447.89506	-750.12675	-355.64670	715.83879	-466.42688	-524.20810	808.72083	-544.84930	-363.07290	695.19648	-714.01960	-526.76459	808.78916	-644.39542	-233.30247	1105.94269	-643.21950	-146.06452	1060.12633	-474.86730	-146.39081	1029.23018	-794.63040	-116.38282	1007.19741	-605.37923	-114.43010	1000.63645	-652.82166	-171.79605	969.23844	-378.34625	-281.21283	776.84583	-324.11794	-241.68650	814.50231	-267.08923	-117.20462	805.66698	-333.65088	-15.20751	786.60489	-401.42368	-2.80814	758.53613	-383.20100	-139.59228	931.00004	-855.96281	-182.16220	692.01728	-840.45311	-140.27306	728.64385	-903.50318	-57.69263	744.73498	-827.06833	51.05972	737.39134	-729.25073	67.35731	718.41551	-753.33516	-454.24188	663.77852	-483.84060	-459.38194	652.39326	-689.93123	-448.30560	658.48047	-498.61961	-452.51884	658.59351	-662.62154	
116	1.15000000	-117.13505	446.88920	-439.33019	-84.86240	367.97029	-457.98119	-295.99516	105.43930	-437.14659	-381.45430	75.47591	-467.56469	-209.19986	46.90678	-401.40301	-158.36806	64.56127	-460.11083	-138.09124	426.89225	-759.55835	-123.93924	333.23081	-771.05966	-356.40366	127.17454	-776.19059	-441.66495	102.17676	-733.39334	-283.97916	46.38895	-823.63202	-235.03965	57.33607	-770.20669	-151.07892	275.94075	-430.57695	-144.29381	414.67824	-420.23800	-209.68550	319.63013	-411.08204	-191.44893	391.30840	-778.36593	-262.41415	290.89724	-791.06706	-335.56629	677.42915	-411.19292	-247.52269	611.84242	-419.43322	-262.52904	552.37510	-389.71393	-403.68138	588.60670	-393.97569	-307.74579	519.63014	-402.77399	-334.76869	607.12115	-796.56503	-216.53473	537.06121	-779.23729	-395.14137	515.78445	-751.01138	-270.74335	446.83526	-749.96436	-353.07259	711.29501	-466.76798	-521.61705	808.43149	-546.73145	-360.85955	693.26923	-714.68067	-523.52095	808.33943	-645.93988	-226.13330	1100.25359	-642.30928	-139.18431	1052.47116	-474.17971	-139.56784	1022.13949	-794.98801	-110.17301	1000.48097	-604.56319	-108.05827	994.08289	-652.02223	-164.28303	960.20010	-379.30219	-269.83692	764.50445	-330.01131	-230.13821	800.84544	-272.65206	-105.65264	794.12154	-339.31541	-3.57147	777.61781	-406.73989	8.92536	748.90032	-389.74369	-131.71006	922.71022	-853.97610	-174.20083	682.04467	-836.54450	-129.42694	719.48297	-897.10979	-47.68384	735.95415	-819.41291	60.50213	728.61335	-721.67075	76.91654	709.13405	-745.22056	-453.44017	661.53880	-485.54464	-457.68162	651.39042	-691.72033	-447.61372	657.20259	-499.55851	-450.76308	657.05054	-663.66704	
117	1.16000000	-116.33415	446.42695	-437.75202	-84.61461	367.29589	-456.47938	-296.05111	105.42196	-436.97709	-381.51635	75.52715	-467.56293	-209.22410	46.86760	-401.43930	-158.47276	64.57462	-460.08980	-136.50679	427.10379	-759.89092	-122.84924	333.53924	-771.80985	-355.80695	127.87604	-776.98701	-441.16264	103.63148	-734.44588	-283.61657	46.42521	-823.87740	-234.76305	57.47144	-770.50498	-151.13719	275.63595	-429.67964	-143.73999	414.51960	-418.85854	-209.53221	319.44312	-409.85777	-190.30699	391.70444	-778.40169	-261.41904	291.70918	-791.75089	-334.59184	677.43192	-410.56676	-246.20642	611.37867	-418.94875	-261.41113	551.88374	-389.36617	-402.49612	588.17283	-392.90741	-306.68247	519.24748	-402.09855	-332.82832	606.81819	-797.43950	-214.70046	536.79287	-779.67537	-393.56048	515.77658	-752.19189	-269.19301	446.82402	-750.11372	-351.14460	708.53610	-466.87694	-518.19946	809.08129	-547.99685	-358.70585	691.62752	-715.41750	-520.24107	809.01784	-647.19790	-218.53348	1096.92804	-642.03825	-132.88639	1045.85039	-474.34364	-132.64386	1016.16177	-794.95497	-104.21946	994.98364	-603.62283	-102.34982	988.69068	-650.85586	-158.38895	952.56480	-379.85931	-260.42488	753.44270	-337.92226	-221.35922	788.66474	-278.80129	-95.95027	783.22788	-344.17672	6.47357	769.19347	-410.99588	18.90935	739.69832	-395.16443	-124.78416	915.67957	-851.88522	-166.89791	674.37236	-830.47807	-120.64824	711.41517	-890.47175	-38.73041	727.61397	-812.43466	69.53345	719.82641	-715.60261	85.88211	699.52501	-738.51121	-452.63662	660.75502	-486.65188	-456.26471	651.13514	-692.86743	-446.49781	656.71343	-499.66816	-449.88141	656.60826	-664.12139	
